# xmcd
#
# Track frame offsets:
#       150
#       19445
#       38925
#       54425
#       65045
#       84337
#       96517
#       112855
#       125940
#       141902
#       158070
#       169432
#       180207
#       194210
#       209467
#       219767
#
# Disc length: 3098 seconds
#
# Revision: 1
# Processed by: cddbd v1.5.2PL0 Copyright (c) Steve Scherf et al.
# Submitted via: MusiCat 1.1
#
DISCID=f00c1810
DTITLE=Diverse Kunstnere - Soul Hits - Vol. 4
DYEAR=2000
DGENRE=
TTITLE0=James Browne - Sexmachine
TTITLE1=Billy Ocean - Love really hurts without you
TTITLE2=Mary Wilson - Oooh child
TTITLE3=The Tymes - So much in love
TTITLE4=Jackie Wilson - Higher and higher
TTITLE5=Classics IV - Traces
TTITLE6=Sam and Dave - Love the one you're with
TTITLE7=Gladus Knight and the Pips - I've got to use my imagination
TTITLE8=Redbone - Come and get your love
TTITLE9=Harold Melvin and the Bluenotes - The love I lost
TTITLE10=Percy Sledge - The dock of the bay
TTITLE11=The Tams - Hey girl dont bother me
TTITLE12=Jimmy Ruffin - What becomes of the broken hearted
TTITLE13=Eddie Holman - Hey there lonely girl
TTITLE14=Dobie Gray - Your are so beautiful
TTITLE15=Fontella Bass - Rescue me
EXTD=\n454\nOriginal
EXTT0=
EXTT1=
EXTT2=
EXTT3=
EXTT4=
EXTT5=
EXTT6=
EXTT7=
EXTT8=
EXTT9=
EXTT10=
EXTT11=
EXTT12=
EXTT13=
EXTT14=
EXTT15=
PLAYORDER=
